# xmcd CD database file
#
# Track frame offsets:
#	150
#	22742
#	80767
#	180025
#	247520
#
# Disc length: 4146 seconds
#
# Revision: 0
# Processed by: cddbd v1.4PL0 Copyright (c) Steve Scherf et al.
# Submitted via: CDex 1.50
#
DISCID=22103005
DTITLE=Hiroaki Katayama - INSTANT GROOVE
DYEAR=1998
DGENRE=Jazz
TTITLE0=SPIRITUAL REJOICE
TTITLE1=N'KAKKA
TTITLE2=SEPTEMBER
TTITLE3=THEME OF THE ANGLERS
TTITLE4=UNTITLED IMPROVISATION/DRUNKENSTEIN
EXTD=YEAR: 1998
EXTT0=
EXTT1=
EXTT2=
EXTT3=
EXTT4=
PLAYORDER=
